Zookeeper 2011 R5 READNFO XViD - CHOiCE


Information:


IMDB: http://www.imdb.com/title/tt1222817/ RELEASE DATE: 07/08/11
SIZE: 1.36gb LENGTH: 1H 37MN
SOURCE: V: RELiZLAB Thanks A: ERDNA Thanks HEIGHT: 304
SUBTITLES: NONE WIDTH: 720


INFO:


Video
ID : 0
Format : MPEG-4 Visual
Format profile : Advanced Simple@L5
Format settings, BVOP : 2
Format settings, QPel : No
Format settings, GMC : No warppoints
Format settings, Matrix : Default (MPEG)
Muxing mode : Packed bitstream
Codec ID : XVID
Codec ID/Hint : XviD
Duration : 1h 37mn
Bit rate : 1 872 Kbps
Width : 720 pixels
Height : 304 pixels
Display aspect ratio : 2.35:1
Frame rate : 25.000 fps
Color space : YUV
Chroma subsampling : 4:2:0
Bit depth : 8 bits
Scan type : Progressive
Compression mode : Lossy
Bits/(Pixel*Frame) : 0.342
Stream size : 1.28 GiB (93%)
Writing library : XviD 64


Audio
ID : 1
Format : MPEG Audio
Format version : Version 1
Format profile : Layer 3
Mode : Joint stereo
Mode extension : MS Stereo
Codec ID : 55
Codec ID/Hint : MP3
Duration : 1h 37mn
Bit rate mode : Constant
Bit rate : 128 Kbps
Channel(s) : 2 channels
Sampling rate : 44.1 KHz
Compression mode : Lossy
Stream size : 89.4 MiB (6%)
Alignment : Split accross interleaves
Interleave, duration : 40 ms (1.00 video frame)


NOTES:


Video was very nice, but needed so tweaking done to the colors.
Audio was nice CAM audio also, a bit hollow and could hear laughter
from time to time but didnt have line so used what was available.


Screens:

 
http://leetleech.org/images/58692544759721169642.jpg
 
http://leetleech.org/images/74690474074987569719.jpg
 
http://leetleech.org/images/19497014672197092930.jpg


ENJOY!